<svg xmlns="http://www.w3.org/2000/svg" viewBox="-15 -18 330 85" width="990" height="255">
  <title>TBox front apron — 300 x 45 mm, to scale (Foster mic connectors on side walls)</title>
  <style>
    .panel  { fill: #e8e8e8; stroke: #333; stroke-width: 0.8; }
    .qjack  { fill: #c0c0c0; stroke: #333; stroke-width: 0.5; }
    .mjack  { fill: #c8c8c8; stroke: #333; stroke-width: 0.5; }
    .hole   { fill: #444; }
    text    { font-family: sans-serif; fill: #222; }
    .lbl    { font-size: 4px; text-anchor: middle; }
    .sm     { font-size: 3.2px; text-anchor: middle; }
    .dim    { font-size: 4px; fill: #777; }
    .dimln  { stroke: #999; stroke-width: 0.3; }
  </style>

  <!-- panel outline -->
  <rect class="panel" x="0" y="0" width="300" height="45" rx="1.5"/>

  <!-- dimensions -->
  <line class="dimln" x1="0" y1="-13" x2="300" y2="-13"/>
  <text class="dim" x="145" y="-15">300 mm</text>
  <line class="dimln" x1="-8" y1="0" x2="-8" y2="45"/>
  <text class="dim" x="-11" y="30" transform="rotate(-90 -11 30)">45 mm</text>

  <!-- ============ SIDE A (left) ============ -->
  <text class="dim" x="5" y="9">CH A</text>

  <text class="lbl" x="30" y="9">MIC</text>
  <text class="sm" x="30" y="42">1/4"</text>
  <circle class="qjack" cx="30" cy="24" r="7.5"/>
  <circle class="hole"  cx="30" cy="24" r="3.2"/>

  <text class="lbl" x="55" y="9">MIC</text>
  <text class="sm" x="55" y="42">3.5</text>
  <circle class="mjack" cx="55" cy="24" r="4.5"/>
  <circle class="hole"  cx="55" cy="24" r="1.8"/>

  <text class="lbl" x="75" y="9">HEADSET</text>
  <text class="sm" x="75" y="42">TRRS</text>
  <circle class="mjack" cx="75" cy="24" r="4.5"/>
  <circle class="hole"  cx="75" cy="24" r="1.8"/>

  <text class="lbl" x="95" y="9">PH</text>
  <text class="sm" x="95" y="42">3.5</text>
  <circle class="mjack" cx="95" cy="24" r="4.5"/>
  <circle class="hole"  cx="95" cy="24" r="1.8"/>

  <text class="lbl" x="120" y="9">PH</text>
  <text class="sm" x="120" y="42">1/4"</text>
  <circle class="qjack" cx="120" cy="24" r="7.5"/>
  <circle class="hole"  cx="120" cy="24" r="3.2"/>

  <!-- ============ SIDE B (right, mirrored) ============ -->
  <text class="dim" x="284" y="9">CH B</text>

  <text class="lbl" x="180" y="9">PH</text>
  <text class="sm" x="180" y="42">1/4"</text>
  <circle class="qjack" cx="180" cy="24" r="7.5"/>
  <circle class="hole"  cx="180" cy="24" r="3.2"/>

  <text class="lbl" x="205" y="9">PH</text>
  <text class="sm" x="205" y="42">3.5</text>
  <circle class="mjack" cx="205" cy="24" r="4.5"/>
  <circle class="hole"  cx="205" cy="24" r="1.8"/>

  <text class="lbl" x="225" y="9">HEADSET</text>
  <text class="sm" x="225" y="42">TRRS</text>
  <circle class="mjack" cx="225" cy="24" r="4.5"/>
  <circle class="hole"  cx="225" cy="24" r="1.8"/>

  <text class="lbl" x="245" y="9">MIC</text>
  <text class="sm" x="245" y="42">3.5</text>
  <circle class="mjack" cx="245" cy="24" r="4.5"/>
  <circle class="hole"  cx="245" cy="24" r="1.8"/>

  <text class="lbl" x="270" y="9">MIC</text>
  <text class="sm" x="270" y="42">1/4"</text>
  <circle class="qjack" cx="270" cy="24" r="7.5"/>
  <circle class="hole"  cx="270" cy="24" r="3.2"/>

  <!-- side-wall note -->
  <text class="dim" x="60" y="58">8-pin Foster mic connectors: one per side wall, facing its operator</text>
</svg>
