<svg xmlns="http://www.w3.org/2000/svg" viewBox="-22 -10 212 122" width="1060" height="610">
  <title>TBox side profile — left wall (CH A), front at left, to scale</title>
  <style>
    .wall   { fill: #ececec; stroke: #222; stroke-width: 1; }
    .board  { fill: none; stroke: #4a7; stroke-width: 0.7; stroke-dasharray: 3 2; }
    .nut    { fill: #cfcfcf; stroke: #444; stroke-width: 0.5; }
    .fpin   { fill: #888; }
    .knob   { fill: #bbb; stroke: #333; stroke-width: 0.5; }
    .tick   { stroke: #555; stroke-width: 0.5; }
    .foot   { fill: #555; }
    text    { font-family: sans-serif; fill: #222; }
    .lbl    { font-size: 4px; text-anchor: middle; }
    .sm     { font-size: 3.2px; text-anchor: middle; fill: #444; }
    .dim    { font-size: 4px; fill: #777; }
    .dimm   { font-size: 4px; fill: #777; text-anchor: middle; }
    .dimln  { stroke: #999; stroke-width: 0.3; }
    .brd    { font-size: 3.5px; fill: #4a7; }
    .brdm   { font-size: 3.5px; fill: #4a7; text-anchor: middle; }
  </style>

  <!-- wedge outline: front-bottom (0,90), rear-bottom (146,90),
       rear-top (146,11), front-top (0,45); slant 150 mm @ ~13 deg -->
  <polygon class="wall" points="0,90 146,90 146,11 0,45"/>

  <!-- feet -->
  <rect class="foot" x="8"   y="90" width="14" height="4" rx="2"/>
  <rect class="foot" x="124" y="90" width="14" height="4" rx="2"/>

  <!-- dimensions -->
  <line class="dimln" x1="0" y1="102" x2="146" y2="102"/>
  <text class="dimm" x="73" y="100">146 mm</text>
  <text class="dim" x="0" y="96">FRONT</text>
  <text class="dim" x="134" y="96">REAR</text>

  <line class="dimln" x1="-8" y1="45" x2="-8" y2="90"/>
  <text class="dimm" x="-12" y="69" transform="rotate(-90 -12 69)">45 mm</text>

  <line class="dimln" x1="154" y1="11" x2="154" y2="90"/>
  <text class="dimm" x="158" y="52" transform="rotate(-90 158 52)">79 mm</text>

  <text class="dimm" x="70" y="24" transform="rotate(-13 70 24)">slant 150 mm, ~13&#176;</text>

  <!-- control board: parallel to slant, ~18 mm below top surface -->
  <line class="board" x1="8" y1="61" x2="138" y2="31"/>
  <text class="brdm" x="110" y="36" transform="rotate(-13 110 36)">CONTROL BOARD</text>

  <!-- rear I/O board: vertical, just inside rear wall -->
  <line class="board" x1="136" y1="16" x2="136" y2="86"/>
  <text class="brdm" x="131" y="66" transform="rotate(-90 131 66)">REAR I/O</text>

  <!-- side daughterboard around Foster + rotary -->
  <rect class="board" x="51" y="47" width="78" height="41" rx="2"/>

  <!-- Foster mic connector -->
  <g transform="translate(70,66)">
    <circle class="nut" r="12"/>
    <circle cx="0" cy="0" r="9" fill="#ddd" stroke="#555" stroke-width="0.4"/>
    <circle class="fpin" cx="0"    cy="-6"   r="1"/>
    <circle class="fpin" cx="4.2"  cy="-4.2" r="1"/>
    <circle class="fpin" cx="6"    cy="0"    r="1"/>
    <circle class="fpin" cx="4.2"  cy="4.2"  r="1"/>
    <circle class="fpin" cx="0"    cy="6"    r="1"/>
    <circle class="fpin" cx="-4.2" cy="4.2"  r="1"/>
    <circle class="fpin" cx="-6"   cy="0"    r="1"/>
    <circle class="fpin" cx="-4.2" cy="-4.2" r="1"/>
  </g>
  <text class="sm" x="70" y="84">MIC A — FOSTER</text>

  <!-- pin-map rotary: brand labels arc over the knob -->
  <g transform="translate(110,66)">
    <circle class="knob" r="6.5"/>
    <rect x="-1" y="-6" width="2" height="5" fill="#555"/>
    <line class="tick" x1="-4.6" y1="-4.6" x2="-6.4" y2="-6.4"/>
    <line class="tick" x1="0"    y1="-6.5" x2="0"    y2="-9"/>
    <line class="tick" x1="4.6"  y1="-4.6" x2="6.4"  y2="-6.4"/>
  </g>
  <text class="sm" x="98" y="58">YAE</text>
  <text class="sm" x="110" y="53">KEN&#183;ELE</text>
  <text class="sm" x="122" y="58">ICOM</text>
  <text class="sm" x="110" y="80">MIC TYPE</text>

  <!-- side board label, clear of both connectors -->
  <text class="brdm" x="90" y="94">SIDE PCB (inside wall)</text>
  <line class="dimln" x1="90" y1="90.5" x2="90" y2="87.5"/>
</svg>
