<svg xmlns="http://www.w3.org/2000/svg" viewBox="-22 -10 212 122" width="1060" height="610">
  <title>TBox side profile — left wall, front at left, to scale</title>
  <style>
    .wall   { fill: #ececec; stroke: #222; stroke-width: 1; }
    .board  { fill: none; stroke: #4a7; stroke-width: 0.7; stroke-dasharray: 3 2; }
    .nut    { fill: #cfcfcf; stroke: #444; stroke-width: 0.5; }
    .fpin   { fill: #888; }
    .knob   { fill: #bbb; stroke: #333; stroke-width: 0.5; }
    .tick   { stroke: #555; stroke-width: 0.5; }
    .foot   { fill: #555; }
    text    { font-family: sans-serif; fill: #222; }
    .lbl    { font-size: 4px; text-anchor: middle; }
    .sm     { font-size: 3.2px; text-anchor: middle; fill: #444; }
    .dim    { font-size: 4px; fill: #777; }
    .dimm   { font-size: 4px; fill: #777; text-anchor: middle; }
    .dimln  { stroke: #999; stroke-width: 0.3; }
    .brd    { font-size: 3.5px; fill: #4a7; }
    .brdm   { font-size: 3.5px; fill: #4a7; text-anchor: middle; }
  </style>

  <!-- wedge outline: front-bottom (0,90), rear-bottom (146,90),
       rear-top (146,11), front-top (0,45); slant 150 mm @ ~13 deg -->
  <polygon class="wall" points="0,90 146,90 146,11 0,45"/>

  <!-- feet -->
  <rect class="foot" x="8"   y="90" width="14" height="4" rx="2"/>
  <rect class="foot" x="124" y="90" width="14" height="4" rx="2"/>

  <!-- dimensions -->
  <line class="dimln" x1="0" y1="102" x2="146" y2="102"/>
  <text class="dimm" x="73" y="100">146 mm</text>
  <text class="dim" x="0" y="96">FRONT</text>
  <text class="dim" x="134" y="96">REAR</text>

  <line class="dimln" x1="-8" y1="45" x2="-8" y2="90"/>
  <text class="dimm" x="-12" y="69" transform="rotate(-90 -12 69)">45 mm</text>

  <line class="dimln" x1="154" y1="11" x2="154" y2="90"/>
  <text class="dimm" x="158" y="52" transform="rotate(-90 158 52)">79 mm</text>

  <text class="dimm" x="70" y="24" transform="rotate(-13 70 24)">slant 150 mm, ~13&#176;</text>

  <!-- control board: parallel to slant, ~18 mm below top surface -->
  <line class="board" x1="8" y1="61" x2="138" y2="31"/>
  <text class="brdm" x="110" y="36" transform="rotate(-13 110 36)">CONTROL BOARD</text>

  <!-- rear I/O board: vertical, just inside rear wall -->
  <line class="board" x1="136" y1="16" x2="136" y2="86"/>
  <text class="brdm" x="131" y="66" transform="rotate(-90 131 66)">REAR I/O</text>

</svg>
